<svg width="100%" height="100%" id="svg" viewBox="0 0 1440 390" xmlns="http://www.w3.org/2000/svg" class="transition duration-300 ease-in-out delay-150"><defs><linearGradient id="gradient" x1="0%" y1="50%" x2="100%" y2="50%"><stop offset="5%" stop-color="#7c73c0"></stop><stop offset="95%" stop-color="#9288f8"></stop></linearGradient></defs><path d="M 0,400 C 0,400 0,133 0,133 C 186.8,114.33333333333334 373.6,95.66666666666667 516,106 C 658.4,116.33333333333333 756.4000000000001,155.66666666666666 903,165 C 1049.6,174.33333333333334 1244.8,153.66666666666669 1440,133 C 1440,133 1440,400 1440,400 Z" stroke="none" stroke-width="0" fill="url(#gradient)" fill-opacity="0.53" class="transition-all duration-300 ease-in-out delay-150 path-0"></path><defs><linearGradient id="gradient" x1="0%" y1="50%" x2="100%" y2="50%"><stop offset="5%" stop-color="#7c73c0"></stop><stop offset="95%" stop-color="#9288f8"></stop></linearGradient></defs><path d="M 0,400 C 0,400 0,266 0,266 C 186.93333333333334,247.86666666666667 373.8666666666667,229.73333333333335 522,222 C 670.1333333333333,214.26666666666665 779.4666666666667,216.9333333333333 926,226 C 1072.5333333333333,235.0666666666667 1256.2666666666667,250.53333333333336 1440,266 C 1440,266 1440,400 1440,400 Z" stroke="none" stroke-width="0" fill="url(#gradient)" fill-opacity="1" class="transition-all duration-300 ease-in-out delay-150 path-1"></path></svg>